<?xml version="1.0" encoding="utf-8"?>
<!-- Generator: Adobe Illustrator 15.0.0, SVG Export Plug-In . SVG Version: 6.00 Build 0)  -->
<!DOCTYPE svg PUBLIC "-//W3C//DTD SVG 1.1//EN" "http://www.w3.org/Graphics/SVG/1.1/DTD/svg11.dtd">
<svg version="1.1" xmlns="http://www.w3.org/2000/svg" xmlns:xlink="http://www.w3.org/1999/xlink" x="0px" y="0px" width="1920px"
	 height="1100px" viewBox="0 0 1920 1100" enable-background="new 0 0 1920 1100" xml:space="preserve">
<g id="Speech_Bubble">
	<path fill="#FFFFFF" d="M569.319,382.533c0,8.636-7,15.637-15.637,15.637H263.1c-8.636,0-15.637-7.001-15.637-15.637V215.741
		c0-8.636,7.001-15.637,15.637-15.637h290.583c8.636,0,15.637,7.001,15.637,15.637V382.533z"/>
	<polygon fill="#FFFFFF" points="380.885,397.035 380.885,459.285 436.338,397.035 	"/>
</g>
<g id="C">
	<path fill="#00AEEF" d="M325.006,279.141c-4.842,0-8.591,1.82-11.248,5.458c-2.656,3.639-3.984,8.709-3.984,15.211
		c0,13.53,5.077,20.295,15.232,20.295c4.261,0,9.421-1.065,15.481-3.196V327.7c-4.98,2.075-10.542,3.113-16.685,3.113
		c-8.827,0-15.578-2.677-20.254-8.031c-4.676-5.354-7.014-13.039-7.014-23.055c0-6.309,1.148-11.835,3.445-16.581
		c2.296-4.745,5.596-8.384,9.898-10.916c4.302-2.531,9.345-3.797,15.128-3.797c5.894,0,11.814,1.425,17.764,4.275l-4.15,10.459
		c-2.269-1.079-4.552-2.02-6.848-2.822C329.474,279.542,327.219,279.141,325.006,279.141z"/>
</g>
<g id="O">
	<path fill="#00AEEF" d="M408.47,299.561c0,10.044-2.49,17.764-7.471,23.159s-12.119,8.093-21.416,8.093s-16.436-2.698-21.416-8.093
		s-7.471-13.143-7.471-23.242c0-10.099,2.497-17.812,7.492-23.138c4.994-5.326,12.153-7.99,21.478-7.99
		c9.324,0,16.457,2.684,21.395,8.052C406.001,281.77,408.47,289.489,408.47,299.561z M364.186,299.561
		c0,6.779,1.287,11.884,3.86,15.315c2.573,3.431,6.419,5.146,11.538,5.146c10.265,0,15.398-6.82,15.398-20.461
		c0-13.668-5.105-20.503-15.315-20.503c-5.119,0-8.979,1.722-11.58,5.167C365.486,287.669,364.186,292.782,364.186,299.561z"/>
</g>
<g id="D">
	<path fill="#00AEEF" d="M471.39,299.062c0,9.989-2.843,17.639-8.529,22.952c-5.687,5.312-13.897,7.969-24.633,7.969h-17.183
		v-60.679h19.05c9.905,0,17.598,2.615,23.076,7.844S471.39,289.683,471.39,299.062z M458.026,299.395
		c0-13.032-5.755-19.548-17.266-19.548h-6.848v39.512h5.52C451.828,319.358,458.026,312.704,458.026,299.395z"/>
</g>
<g id="E">
	<path fill="#00AEEF" d="M518.912,329.983h-34.946v-60.679h34.946v10.542h-22.08v13.323h20.544v10.542h-20.544v15.647h22.08V329.983
		z"/>
</g>
<g id="Note_1">
	<g id="ZsnGR2.tif_3_">
		<g>
			<g>
				<path fill-rule="evenodd" clip-rule="evenodd" fill="#F6F7F9" d="M1638.64,265.404c0.017,0,0.034,0,0.051,0
					c0,0.455,0,0.909,0,1.364c-0.017,0-0.034,0-0.051,0C1638.64,266.313,1638.64,265.858,1638.64,265.404z"/>
				<path fill-rule="evenodd" clip-rule="evenodd" fill="#F7F9FA" d="M1624.599,272.324c0.116,0.153,0.018,0.521,0.051,0.757
					c-0.018,0-0.034,0-0.051,0C1624.599,272.829,1624.599,272.576,1624.599,272.324z"/>
				<path fill-rule="evenodd" clip-rule="evenodd" fill="#FAFBFC" d="M1624.599,273.081c0.017,0,0.033,0,0.051,0
					c0,0.186,0,0.371,0,0.556c-0.018,0-0.034,0-0.051,0C1624.599,273.452,1624.599,273.267,1624.599,273.081z"/>
				<path fill-rule="evenodd" clip-rule="evenodd" fill="#F7F9FA" d="M1624.599,273.637c0.017,0,0.033,0,0.051,0
					c-0.033,0.253,0.065,0.639-0.051,0.808C1624.599,274.175,1624.599,273.906,1624.599,273.637z"/>
				<path fill-rule="evenodd" clip-rule="evenodd" fill="#F6F7F9" d="M1548.23,303.184c0.017,0,0.033,0,0.051,0
					c0,0.354,0,0.707,0,1.061c-0.018,0-0.034,0-0.051,0C1548.23,303.891,1548.23,303.538,1548.23,303.184z"/>
				<path fill-rule="evenodd" clip-rule="evenodd" fill="#F6F7F9" d="M1570.201,324.195c0.07-0.115,0.352-0.019,0.506-0.051
					c0,0.017,0,0.034,0,0.051C1570.538,324.195,1570.37,324.195,1570.201,324.195z"/>
				<path fill-rule="evenodd" clip-rule="evenodd" fill="#FAFBFC" d="M1623.336,230.907c-0.375-0.333-0.729-0.686-1.061-1.061
					C1622.649,230.179,1623.004,230.532,1623.336,230.907z"/>
				<path fill-rule="evenodd" clip-rule="evenodd" fill="#FFFFFF" d="M1622.275,229.846c-0.216-0.138-0.341-0.367-0.556-0.505
					c-0.484-0.526-0.989-1.031-1.516-1.515c-5.146-6.046-7.467-14.975-10.505-23.133c-3.473-0.552-6.941-1.106-10.354-1.717
					c13.115,0,26.23,0,39.346,0c0,20.505,0,41.013,0,61.519c-0.017,0-0.034,0-0.051,0c0-0.151,0-0.303,0-0.455
					c-0.031-0.153,0.064-0.435-0.051-0.505c-0.478-7.208-2.67-13.062-5.253-18.284c-2.575-5.208-5.754-9.867-9.596-13.89
					c-0.104-0.182-0.3-0.272-0.404-0.454C1623.004,230.532,1622.649,230.179,1622.275,229.846z"/>
				<path fill-rule="evenodd" clip-rule="evenodd" fill="#F6F7F9" d="M1621.72,229.341c0.215,0.138,0.34,0.367,0.556,0.505
					c0.332,0.375,0.686,0.729,1.061,1.061c0.104,0.182,0.3,0.272,0.404,0.454C1623.045,230.709,1622.372,230.036,1621.72,229.341z"
					/>
				<path fill-rule="evenodd" clip-rule="evenodd" fill="#F7F9FA" d="M1620.204,227.826c0.526,0.484,1.031,0.989,1.516,1.515
					C1621.193,228.857,1620.688,228.352,1620.204,227.826z"/>
				<path fill-rule="evenodd" clip-rule="evenodd" fill="#F5F6F7" d="M1599.345,202.976c3.413,0.611,6.882,1.165,10.354,1.717
					c3.038,8.158,5.359,17.086,10.505,23.133c0.484,0.526,0.989,1.031,1.516,1.515c0.652,0.694,1.325,1.368,2.021,2.02
					c3.842,4.023,7.021,8.682,9.596,13.89c2.583,5.222,4.775,11.076,5.253,18.284c0.032,0.153-0.064,0.435,0.051,0.505
					c0,0.152,0,0.303,0,0.455c0,0.303,0,0.606,0,0.909c0,0.455,0,0.909,0,1.364c0,0.32,0,0.64,0,0.96
					c-0.584,10.848-4.839,18.024-10.354,23.94c-0.307,0.265-0.593,0.551-0.858,0.859c-2.659,2.543-5.587,4.817-9.293,6.313
					c2.4-7.516,5.682-14.151,6.414-23.335c0.115-0.07,0.019-0.352,0.051-0.505c0-0.185,0-0.371,0-0.556
					c0.116-0.169,0.018-0.555,0.051-0.808c0-0.185,0-0.37,0-0.556c-0.033-0.236,0.065-0.604-0.051-0.757c0-0.152,0-0.303,0-0.455
					c-0.032-0.154,0.064-0.435-0.051-0.505c-1.189-12.616-7.684-19.927-14.243-27.173c-0.104-0.182-0.3-0.272-0.404-0.455
					c-0.483-0.526-0.988-1.031-1.515-1.515c-0.183-0.104-0.272-0.3-0.455-0.404c-0.155-0.114-0.29-0.249-0.403-0.404
					c-0.188-0.233-0.394-0.449-0.657-0.606c-0.973-0.829-1.961-1.912-2.93-2.576c-2.738,23.48-6.333,46.986-9.091,70.762
					c-0.092,0.785-0.105,1.648-0.304,2.273c-0.284,0.898-1.244,1.298-1.768,2.071c-0.476,0.434-0.93,0.888-1.363,1.364
					c-5.098,4.702-10.797,8.8-19.951,9.445c-0.252,0-0.505,0-0.757,0c-0.154,0.032-0.436-0.064-0.506,0.051
					c-0.202,0-0.404,0-0.605,0c-0.153-0.117-0.521-0.018-0.758-0.051c-6.084-0.353-10.769-2.554-14.294-5.556
					c-3.523-3-6.186-7.209-6.263-13.586c0-0.253,0-0.505,0-0.758c0-0.354,0-0.707,0-1.061c0-0.286,0-0.573,0-0.859
					c0.33-5.693,2.309-10.138,5.354-13.183c3.039-3.04,7.225-5.25,13.031-5.455c0.69,0,1.381,0,2.07,0
					c7.818,0.398,13.27,3.163,18.638,6.01c4.032-28.781,7.692-57.937,11.718-86.722
					C1599.176,202.976,1599.261,202.976,1599.345,202.976z"/>
				<path fill-rule="evenodd" clip-rule="evenodd" fill="#F7F9FA" d="M1627.427,292.527c0.266-0.308,0.552-0.594,0.858-0.859
					C1628.021,291.976,1627.734,292.262,1627.427,292.527z"/>
				<path fill-rule="evenodd" clip-rule="evenodd" fill="#F6F7F9" d="M1609.9,243.736c-0.198-0.121-0.307-0.333-0.505-0.455
					c-0.164-0.206-0.349-0.391-0.556-0.555c-0.121-0.199-0.333-0.307-0.454-0.505C1608.912,242.705,1609.417,243.21,1609.9,243.736z
					"/>
				<path fill-rule="evenodd" clip-rule="evenodd" fill="#FAFBFC" d="M1607.931,241.817c0.183,0.104,0.272,0.3,0.455,0.404
					c0.121,0.199,0.333,0.307,0.454,0.505C1608.516,242.444,1608.213,242.141,1607.931,241.817z"/>
				<path fill-rule="evenodd" clip-rule="evenodd" fill="#F6F7F9" d="M1607.527,241.413c-0.22-0.202-0.487-0.354-0.657-0.606
					C1607.134,240.964,1607.339,241.18,1607.527,241.413z"/>
				<path fill-rule="evenodd" clip-rule="evenodd" fill="#F7F9FA" d="M1591.415,314.7c0.434-0.476,0.888-0.93,1.363-1.364
					C1592.345,313.812,1591.891,314.266,1591.415,314.7z"/>
				<path fill-rule="evenodd" clip-rule="evenodd" fill="#FDFEFF" d="M1608.84,242.726c0.207,0.164,0.392,0.349,0.556,0.555
					C1609.189,243.117,1609.004,242.932,1608.84,242.726z"/>
				<path fill-rule="evenodd" clip-rule="evenodd" fill="#FAFBFC" d="M1609.396,243.281c0.198,0.122,0.307,0.333,0.505,0.455
					c0.104,0.182,0.3,0.273,0.404,0.455C1609.98,243.909,1609.678,243.605,1609.396,243.281z"/>
				<path fill-rule="evenodd" clip-rule="evenodd" fill="#FFFFFF" d="M1610.305,244.19c6.56,7.246,13.054,14.558,14.243,27.173
					c0.032,0.154-0.064,0.435,0.051,0.505c0,0.151,0,0.303,0,0.455c0,0.252,0,0.505,0,0.757c0,0.186,0,0.371,0,0.556
					c0,0.27,0,0.539,0,0.808c0,0.185,0,0.371,0,0.556c-0.115,0.07-0.019,0.352-0.051,0.505c-0.732,9.184-4.014,15.819-6.414,23.335
					c3.706-1.497,6.634-3.771,9.293-6.313c0.308-0.265,0.594-0.551,0.858-0.859c5.516-5.917,9.771-13.093,10.354-23.94
					c0.017,0,0.034,0,0.051,0c0,18.822,0,37.646,0,56.468c-22.409,0-44.817,0-67.227,0c0-0.017,0-0.034,0-0.051
					c9.154-0.645,14.854-4.743,19.951-9.445c0.476-0.434,0.93-0.888,1.363-1.364c0.523-0.772,1.483-1.172,1.768-2.071
					c0.198-0.625,0.212-1.488,0.304-2.273c2.758-23.775,6.353-47.282,9.091-70.762c0.969,0.665,1.957,1.748,2.93,2.576
					c0.17,0.251,0.438,0.404,0.657,0.606c0.113,0.156,0.248,0.291,0.403,0.404c0.282,0.324,0.585,0.627,0.909,0.909
					c0.164,0.206,0.35,0.391,0.556,0.555C1609.678,243.605,1609.98,243.909,1610.305,244.19z"/>
				<path fill-rule="evenodd" clip-rule="evenodd" fill="#FFFFFF" d="M1599.092,202.976c-4.025,28.786-7.686,57.941-11.718,86.722
					c-5.368-2.848-10.819-5.612-18.638-6.01c-0.572-0.084-1.498-0.084-2.07,0c-5.807,0.205-9.992,2.415-13.031,5.455
					c-3.045,3.045-5.023,7.49-5.354,13.183c-0.018,0-0.034,0-0.051,0c0-33.115,0-66.234,0-99.349
					C1565.185,202.976,1582.138,202.976,1599.092,202.976z"/>
				<path fill-rule="evenodd" clip-rule="evenodd" fill="#F7F9FA" d="M1638.589,263.535c0.115,0.07,0.02,0.352,0.051,0.505
					C1638.524,263.97,1638.621,263.688,1638.589,263.535z"/>
				<path fill-rule="evenodd" clip-rule="evenodd" fill="#F7F9FA" d="M1638.69,266.768c0,0.32,0,0.64,0,0.96
					c-0.017,0-0.034,0-0.051,0c0-0.32,0-0.64,0-0.96C1638.656,266.768,1638.674,266.768,1638.69,266.768z"/>
				<path fill-rule="evenodd" clip-rule="evenodd" fill="#FAFBFC" d="M1624.548,271.364c0.115,0.07,0.019,0.352,0.051,0.505
					C1624.483,271.799,1624.58,271.518,1624.548,271.364z"/>
				<path fill-rule="evenodd" clip-rule="evenodd" fill="#F7F9FA" d="M1624.599,275c-0.032,0.153,0.064,0.435-0.051,0.505
					C1624.58,275.352,1624.483,275.07,1624.599,275z"/>
				<path fill-rule="evenodd" clip-rule="evenodd" fill="#F7F9FA" d="M1548.281,304.245c0,0.252,0,0.505,0,0.758
					c-0.018,0-0.034,0-0.051,0c0-0.253,0-0.505,0-0.758C1548.247,304.245,1548.264,304.245,1548.281,304.245z"/>
				<path fill-rule="evenodd" clip-rule="evenodd" fill="#F7F9FA" d="M1568.838,324.145c0.236,0.033,0.604-0.066,0.758,0.051
					c-0.253,0-0.506,0-0.758,0C1568.838,324.178,1568.838,324.162,1568.838,324.145z"/>
				<path fill-rule="evenodd" clip-rule="evenodd" fill="#F7F9FA" d="M1570.707,324.145c0.252,0,0.505,0,0.757,0
					c0,0.017,0,0.034,0,0.051c-0.252,0-0.505,0-0.757,0C1570.707,324.178,1570.707,324.162,1570.707,324.145z"/>
				<path fill-rule="evenodd" clip-rule="evenodd" fill="#FFFFFF" d="M1548.281,305.002c0.077,6.377,2.739,10.586,6.263,13.586
					c3.525,3.002,8.21,5.203,14.294,5.556c0,0.017,0,0.034,0,0.051c-6.869,0-13.738,0-20.607,0c0-6.398,0-12.795,0-19.193
					C1548.247,305.002,1548.264,305.002,1548.281,305.002z"/>
				<path fill-rule="evenodd" clip-rule="evenodd" fill="#F7F9FA" d="M1638.69,264.495c0,0.303,0,0.606,0,0.909
					c-0.017,0-0.034,0-0.051,0c0-0.303,0-0.606,0-0.909C1638.656,264.495,1638.674,264.495,1638.69,264.495z"/>
				<path fill-rule="evenodd" clip-rule="evenodd" fill="#F7F9FA" d="M1566.666,283.688c0.572-0.084,1.498-0.084,2.07,0
					C1568.047,283.688,1567.356,283.688,1566.666,283.688z"/>
				<path fill-rule="evenodd" clip-rule="evenodd" fill="#F7F9FA" d="M1548.281,302.325c0,0.286,0,0.573,0,0.859
					c-0.018,0-0.034,0-0.051,0c0-0.286,0-0.573,0-0.859C1548.247,302.325,1548.264,302.325,1548.281,302.325z"/>
			</g>
		</g>
	</g>
</g>
<g id="Note_2">
	<g id="kBiAPB.tif_2_">
		<g>
			<g>
				<path fill-rule="evenodd" clip-rule="evenodd" fill="#FFFFFF" d="M1381.37,426.616c-1.6-30.127-3.198-60.253-4.797-90.381
					c35-1.857,69.998-3.715,104.998-5.572c-23.444,8.065-47.331,15.732-71.009,23.588c1.101,20.726,2.2,41.45,3.3,62.176
					c-1.308,0.121-2.483-0.666-3.771-1.039C1398.423,412.012,1383.803,416.382,1381.37,426.616z"/>
				<path fill-rule="evenodd" clip-rule="evenodd" fill="#FFFFFF" d="M1417.958,365.214c19.528-6.293,38.628-12.971,58.234-19.194
					c0.2,3.774,0.401,7.549,0.602,11.323c-19.37,7.678-38.784,15.315-58.244,22.911
					C1418.424,375.306,1417.722,369.838,1417.958,365.214z"/>
				<path fill-rule="evenodd" clip-rule="evenodd" fill="#FFFFFF" d="M1403.785,440.498c7.848-1.605,14.542-3.985,16.791-10.388
					c0.939-2.674,0.212-7.678-0.038-12.385c-0.511-9.625-1.151-21.702-1.639-30.882c19.369-7.678,38.784-15.315,58.244-22.911
					c0.517,9.745,1.034,19.49,1.552,29.235c-1.34,0.288-2.686-0.931-4.617-1.407c-10.205-2.512-24.348,1.142-27.356,9.71
					c-0.758,2.158-0.526,5.216,0.382,7.206c5.816,12.73,35.336,11.35,38.824-3.712c0.55,10.363,1.1,20.726,1.649,31.088
					C1459.646,437.534,1431.716,439.016,1403.785,440.498z"/>
				<path fill-rule="evenodd" clip-rule="evenodd" fill="#F5F6F7" d="M1481.571,330.663c0.069-0.003,0.138-0.007,0.206-0.011
					c1.773,24.337,2.702,49.613,4.15,74.311c-3.488,15.062-33.008,16.442-38.824,3.712c-0.908-1.99-1.14-5.048-0.382-7.206
					c3.009-8.568,17.151-12.222,27.356-9.71c1.932,0.476,3.277,1.695,4.617,1.407c-0.518-9.745-1.035-19.49-1.552-29.235
					c-19.46,7.596-38.875,15.233-58.244,22.911c0.487,9.18,1.128,21.257,1.639,30.882c0.25,4.707,0.978,9.711,0.038,12.385
					c-2.249,6.403-8.943,8.783-16.791,10.388c-1.236,0.065-2.471,0.131-3.706,0.197c-8.848-0.481-15.668-3.216-18.513-10.373
					c-0.065-1.235-0.131-2.471-0.196-3.706c2.433-10.234,17.053-14.604,28.721-11.228c1.288,0.373,2.464,1.159,3.771,1.039
					c-1.1-20.726-2.199-41.45-3.3-62.176C1434.24,346.396,1458.127,338.728,1481.571,330.663z M1418.55,380.254
					c19.46-7.596,38.874-15.233,58.244-22.911c-0.2-3.774-0.401-7.549-0.602-11.323c-19.606,6.223-38.706,12.901-58.234,19.194
					C1417.722,369.838,1418.424,375.306,1418.55,380.254z"/>
				<path fill-rule="evenodd" clip-rule="evenodd" fill="#FFFFFF" d="M1381.566,430.322c2.845,7.157,9.665,9.891,18.513,10.373
					c-5.971,0.317-11.941,0.634-17.912,0.951C1381.967,437.871,1381.767,434.097,1381.566,430.322z"/>
			</g>
		</g>
	</g>
</g>
<g id="Note_3">
	<g id="BKQpEu.tif_1_">
		<g>
			<g>
				<path fill-rule="evenodd" clip-rule="evenodd" fill="#FFFFFF" d="M1616.726,420.676c0.051-0.743,0.102-1.487,0.152-2.23
					c0.366,0.433-0.044,1.544,0.019,2.242C1616.84,420.684,1616.782,420.68,1616.726,420.676z"/>
				<path fill-rule="evenodd" clip-rule="evenodd" fill="#FDFEFF" d="M1616.726,420.676c0.057,0.004,0.114,0.008,0.171,0.012
					c-0.391,5.718-0.781,11.436-1.172,17.154c-0.058-0.004-0.114-0.008-0.172-0.012
					C1615.943,432.112,1616.334,426.394,1616.726,420.676z"/>
				<path fill-rule="evenodd" clip-rule="evenodd" fill="#FDFEFF" d="M1556.592,445.692c-1.373,18.405-2.319,37.297-3.959,55.396
					C1554.006,482.684,1554.952,463.792,1556.592,445.692z"/>
				<path fill-rule="evenodd" clip-rule="evenodd" fill="#FDFEFF" d="M1595.8,479.738c0.371-0.261,1.897-0.156,2.229,0.152
					C1597.286,479.84,1596.543,479.789,1595.8,479.738z"/>
				<path fill-rule="evenodd" clip-rule="evenodd" fill="#FDFEFF" d="M1536.666,487.589c0.371-0.261,1.898-0.156,2.23,0.152
					C1538.153,487.69,1537.409,487.64,1536.666,487.589z"/>
				<path fill-rule="evenodd" clip-rule="evenodd" fill="#FFFFFF" d="M1536.666,487.589c-9.186-0.17-19.526,5.145-20.942,13.907
					c-1.255,7.764,5.24,12.864,12.81,14.318c-4.632-0.317-9.264-0.633-13.896-0.95c2.345-34.309,4.689-68.617,7.034-102.925
					c31.679,2.165,63.355,4.33,95.034,6.495c-23.372,3.167-46.684,6.402-70.265,9.33c-1.379,20.185-2.758,40.369-4.138,60.555
					c-1.246-0.096-2.013-0.611-3.407-0.578C1538.564,487.433,1537.037,487.328,1536.666,487.589z"/>
				<path fill-rule="evenodd" clip-rule="evenodd" fill="#FFFFFF" d="M1595.8,479.738c-8.232,0.102-15.24,3.22-18.864,8.707
					c-3.701,5.604-1.978,12.968,2.513,16.2c10.038,7.224,29.903,2.524,32.225-10.034c0.814-4.405,0.649-9.51,0.973-14.238
					c0.948-13.877,1.969-28.812,2.907-42.542c0.058,0.004,0.114,0.008,0.172,0.012c-1.903,27.847-3.807,55.694-5.709,83.541
					c-25.789-1.763-51.577-3.525-77.365-5.287c9.978-1.199,18.003-4.637,19.982-15.007c1.64-18.1,2.586-36.992,3.959-55.396
					c15.936-2.014,31.553-4.391,47.646-6.223c-0.934,13.666-1.867,27.332-2.802,40.999c-1.246-0.096-2.013-0.611-3.407-0.578
					C1597.697,479.582,1596.171,479.478,1595.8,479.738z"/>
				<path fill-rule="evenodd" clip-rule="evenodd" fill="#F5F6F7" d="M1538.896,487.741c1.395-0.033,2.161,0.481,3.407,0.578
					c1.38-20.186,2.759-40.37,4.138-60.555c23.581-2.928,46.893-6.163,70.265-9.33c0.058,0.004,0.114,0.008,0.172,0.012
					c-0.051,0.743-0.102,1.487-0.152,2.23c-0.392,5.718-0.782,11.436-1.173,17.154c-0.938,13.73-1.959,28.666-2.907,42.542
					c-0.323,4.728-0.158,9.833-0.973,14.238c-2.321,12.558-22.187,17.258-32.225,10.034c-4.49-3.231-6.214-10.595-2.513-16.2
					c3.624-5.486,10.632-8.604,18.864-8.707c0.743,0.051,1.486,0.102,2.229,0.152c1.395-0.033,2.161,0.481,3.407,0.578
					c0.935-13.667,1.868-27.333,2.802-40.999c-16.094,1.832-31.711,4.209-47.646,6.223c-1.64,18.099-2.586,36.992-3.959,55.396
					c-1.979,10.37-10.005,13.808-19.982,15.007c-1.373-0.094-2.745-0.188-4.117-0.281c-7.569-1.454-14.064-6.554-12.81-14.318
					c1.416-8.762,11.757-14.077,20.942-13.907C1537.409,487.64,1538.153,487.69,1538.896,487.741z"/>
			</g>
		</g>
	</g>
</g>
<g id="Note_4">
	<g id="ZsnGR2.tif_4_">
		<g>
			<g>
				<path fill-rule="evenodd" clip-rule="evenodd" fill="#F6F7F9" d="M1459.397,574.731c0.013,0,0.026,0,0.04,0
					c0,0.36,0,0.721,0,1.081c-0.014,0-0.027,0-0.04,0C1459.397,575.452,1459.397,575.092,1459.397,574.731z"/>
				<path fill-rule="evenodd" clip-rule="evenodd" fill="#F7F9FA" d="M1448.269,580.217c0.092,0.121,0.014,0.412,0.04,0.6
					c-0.014,0-0.027,0-0.04,0C1448.269,580.616,1448.269,580.416,1448.269,580.217z"/>
				<path fill-rule="evenodd" clip-rule="evenodd" fill="#FAFBFC" d="M1448.269,580.816c0.013,0,0.026,0,0.04,0
					c0,0.147,0,0.294,0,0.44c-0.014,0-0.027,0-0.04,0C1448.269,581.11,1448.269,580.964,1448.269,580.816z"/>
				<path fill-rule="evenodd" clip-rule="evenodd" fill="#F7F9FA" d="M1448.269,581.257c0.013,0,0.026,0,0.04,0
					c-0.026,0.201,0.052,0.507-0.04,0.641C1448.269,581.685,1448.269,581.471,1448.269,581.257z"/>
				<path fill-rule="evenodd" clip-rule="evenodd" fill="#F6F7F9" d="M1387.738,604.677c0.014,0,0.026,0,0.04,0
					c0,0.28,0,0.561,0,0.841c-0.014,0-0.026,0-0.04,0C1387.738,605.237,1387.738,604.957,1387.738,604.677z"/>
				<path fill-rule="evenodd" clip-rule="evenodd" fill="#F6F7F9" d="M1405.152,621.33c0.056-0.091,0.279-0.015,0.4-0.04
					c0,0.014,0,0.026,0,0.04C1405.42,621.33,1405.286,621.33,1405.152,621.33z"/>
				<path fill-rule="evenodd" clip-rule="evenodd" fill="#FAFBFC" d="M1447.268,547.389c-0.297-0.264-0.577-0.543-0.841-0.841
					C1446.724,546.812,1447.004,547.092,1447.268,547.389z"/>
				<path fill-rule="evenodd" clip-rule="evenodd" fill="#FFFFFF" d="M1446.427,546.548c-0.171-0.109-0.27-0.291-0.44-0.4
					c-0.384-0.417-0.784-0.817-1.201-1.201c-4.079-4.792-5.918-11.869-8.326-18.335c-2.752-0.438-5.502-0.877-8.207-1.361
					c10.395,0,20.79,0,31.186,0c0,16.253,0,32.508,0,48.76c-0.014,0-0.027,0-0.04,0c0-0.12,0-0.239,0-0.36
					c-0.025-0.121,0.051-0.345-0.04-0.399c-0.379-5.713-2.117-10.354-4.164-14.492c-2.041-4.128-4.561-7.821-7.605-11.009
					c-0.083-0.144-0.238-0.216-0.32-0.36C1447.004,547.092,1446.724,546.812,1446.427,546.548z"/>
				<path fill-rule="evenodd" clip-rule="evenodd" fill="#F6F7F9" d="M1445.986,546.148c0.171,0.109,0.27,0.291,0.44,0.4
					c0.264,0.297,0.544,0.577,0.841,0.841c0.082,0.145,0.237,0.216,0.32,0.36C1447.037,547.232,1446.504,546.699,1445.986,546.148z"
					/>
				<path fill-rule="evenodd" clip-rule="evenodd" fill="#F7F9FA" d="M1444.785,544.947c0.417,0.384,0.817,0.784,1.201,1.201
					C1445.569,545.765,1445.169,545.364,1444.785,544.947z"/>
				<path fill-rule="evenodd" clip-rule="evenodd" fill="#F5F6F7" d="M1428.252,525.251c2.705,0.484,5.455,0.923,8.207,1.361
					c2.408,6.466,4.247,13.542,8.326,18.335c0.384,0.417,0.784,0.817,1.201,1.201c0.518,0.55,1.051,1.084,1.602,1.601
					c3.045,3.188,5.564,6.881,7.605,11.009c2.047,4.139,3.785,8.779,4.164,14.492c0.025,0.121-0.052,0.345,0.04,0.399
					c0,0.121,0,0.24,0,0.36c0,0.24,0,0.48,0,0.721c0,0.36,0,0.721,0,1.081c0,0.254,0,0.507,0,0.761
					c-0.463,8.599-3.836,14.286-8.207,18.976c-0.243,0.21-0.47,0.438-0.681,0.681c-2.107,2.016-4.429,3.818-7.366,5.004
					c1.903-5.957,4.504-11.216,5.085-18.495c0.091-0.056,0.015-0.278,0.04-0.4c0-0.146,0-0.293,0-0.44
					c0.092-0.134,0.014-0.439,0.04-0.641c0-0.146,0-0.293,0-0.44c-0.026-0.188,0.052-0.479-0.04-0.6c0-0.121,0-0.24,0-0.36
					c-0.025-0.122,0.051-0.346-0.04-0.4c-0.943-10-6.091-15.795-11.29-21.538c-0.082-0.145-0.237-0.216-0.32-0.36
					c-0.383-0.417-0.783-0.817-1.2-1.201c-0.145-0.082-0.217-0.237-0.36-0.32c-0.124-0.09-0.23-0.196-0.32-0.32
					c-0.149-0.185-0.312-0.355-0.521-0.48c-0.771-0.656-1.555-1.515-2.322-2.041c-2.171,18.61-5.02,37.241-7.206,56.086
					c-0.072,0.622-0.083,1.306-0.24,1.802c-0.226,0.712-0.986,1.028-1.401,1.641c-0.377,0.344-0.736,0.704-1.08,1.081
					c-4.04,3.727-8.558,6.976-15.813,7.486c-0.2,0-0.4,0-0.601,0c-0.121,0.025-0.345-0.051-0.4,0.04c-0.16,0-0.32,0-0.48,0
					c-0.121-0.092-0.412-0.014-0.6-0.04c-4.822-0.28-8.535-2.024-11.33-4.403c-2.793-2.378-4.902-5.715-4.964-10.77
					c0-0.199,0-0.4,0-0.6c0-0.28,0-0.561,0-0.841c0-0.228,0-0.454,0-0.681c0.262-4.513,1.83-8.035,4.243-10.449
					c2.409-2.409,5.727-4.16,10.329-4.323c0.547,0,1.094,0,1.642,0c6.196,0.315,10.517,2.507,14.771,4.764
					c3.195-22.812,6.098-45.921,9.288-68.736C1428.118,525.251,1428.185,525.251,1428.252,525.251z"/>
				<path fill-rule="evenodd" clip-rule="evenodd" fill="#F7F9FA" d="M1450.51,596.229c0.211-0.243,0.438-0.471,0.681-0.681
					C1450.98,595.793,1450.754,596.02,1450.51,596.229z"/>
				<path fill-rule="evenodd" clip-rule="evenodd" fill="#F6F7F9" d="M1436.618,557.558c-0.157-0.096-0.242-0.265-0.399-0.36
					c-0.131-0.163-0.277-0.311-0.441-0.44c-0.096-0.157-0.264-0.243-0.359-0.4C1435.835,556.74,1436.235,557.141,1436.618,557.558z"
					/>
				<path fill-rule="evenodd" clip-rule="evenodd" fill="#FAFBFC" d="M1435.058,556.036c0.144,0.083,0.216,0.238,0.36,0.32
					c0.096,0.157,0.264,0.243,0.359,0.4C1435.521,556.533,1435.281,556.293,1435.058,556.036z"/>
				<path fill-rule="evenodd" clip-rule="evenodd" fill="#F6F7F9" d="M1434.737,555.716c-0.174-0.159-0.387-0.281-0.521-0.48
					C1434.426,555.36,1434.588,555.531,1434.737,555.716z"/>
				<path fill-rule="evenodd" clip-rule="evenodd" fill="#F7F9FA" d="M1421.967,613.804c0.344-0.377,0.703-0.737,1.08-1.081
					C1422.704,613.1,1422.344,613.46,1421.967,613.804z"/>
				<path fill-rule="evenodd" clip-rule="evenodd" fill="#FDFEFF" d="M1435.777,556.757c0.164,0.13,0.311,0.277,0.441,0.44
					C1436.055,557.067,1435.908,556.921,1435.777,556.757z"/>
				<path fill-rule="evenodd" clip-rule="evenodd" fill="#FAFBFC" d="M1436.219,557.197c0.157,0.096,0.242,0.265,0.399,0.36
					c0.083,0.145,0.238,0.216,0.32,0.36C1436.682,557.694,1436.441,557.454,1436.219,557.197z"/>
				<path fill-rule="evenodd" clip-rule="evenodd" fill="#FFFFFF" d="M1436.938,557.918c5.199,5.743,10.347,11.538,11.29,21.538
					c0.024,0.121-0.052,0.345,0.04,0.4c0,0.12,0,0.239,0,0.36c0,0.199,0,0.399,0,0.6c0,0.147,0,0.294,0,0.44
					c0,0.214,0,0.428,0,0.641c0,0.147,0,0.294,0,0.44c-0.092,0.056-0.016,0.279-0.04,0.4c-0.581,7.279-3.182,12.538-5.085,18.495
					c2.938-1.186,5.259-2.988,7.366-5.004c0.244-0.21,0.471-0.437,0.681-0.681c4.371-4.689,7.744-10.377,8.207-18.976
					c0.013,0,0.026,0,0.04,0c0,14.918,0,29.839,0,44.757c-17.762,0-35.522,0-53.284,0c0-0.014,0-0.026,0-0.04
					c7.256-0.511,11.773-3.76,15.813-7.486c0.377-0.344,0.737-0.704,1.08-1.081c0.415-0.612,1.176-0.929,1.401-1.641
					c0.157-0.496,0.168-1.18,0.24-1.802c2.187-18.845,5.035-37.476,7.206-56.086c0.768,0.526,1.551,1.385,2.322,2.041
					c0.134,0.199,0.347,0.321,0.521,0.48c0.09,0.124,0.196,0.23,0.32,0.32c0.224,0.257,0.464,0.497,0.72,0.721
					c0.131,0.164,0.277,0.311,0.441,0.44C1436.441,557.454,1436.682,557.694,1436.938,557.918z"/>
				<path fill-rule="evenodd" clip-rule="evenodd" fill="#FFFFFF" d="M1428.052,525.251c-3.19,22.815-6.093,45.925-9.288,68.736
					c-4.255-2.257-8.575-4.448-14.771-4.764c-0.454-0.066-1.188-0.066-1.642,0c-4.603,0.163-7.92,1.914-10.329,4.323
					c-2.413,2.414-3.981,5.937-4.243,10.449c-0.014,0-0.026,0-0.04,0c0-26.248,0-52.498,0-78.745
					C1401.177,525.251,1414.613,525.251,1428.052,525.251z"/>
				<path fill-rule="evenodd" clip-rule="evenodd" fill="#F7F9FA" d="M1459.357,573.251c0.091,0.055,0.015,0.278,0.04,0.399
					C1459.306,573.596,1459.383,573.372,1459.357,573.251z"/>
				<path fill-rule="evenodd" clip-rule="evenodd" fill="#F7F9FA" d="M1459.438,575.812c0,0.254,0,0.507,0,0.761
					c-0.014,0-0.027,0-0.04,0c0-0.254,0-0.507,0-0.761C1459.41,575.812,1459.424,575.812,1459.438,575.812z"/>
				<path fill-rule="evenodd" clip-rule="evenodd" fill="#FAFBFC" d="M1448.229,579.456c0.091,0.055,0.015,0.278,0.04,0.4
					C1448.177,579.801,1448.253,579.577,1448.229,579.456z"/>
				<path fill-rule="evenodd" clip-rule="evenodd" fill="#F7F9FA" d="M1448.269,582.338c-0.025,0.122,0.051,0.345-0.04,0.4
					C1448.253,582.617,1448.177,582.394,1448.269,582.338z"/>
				<path fill-rule="evenodd" clip-rule="evenodd" fill="#F7F9FA" d="M1387.778,605.518c0,0.199,0,0.4,0,0.6
					c-0.014,0-0.026,0-0.04,0c0-0.199,0-0.4,0-0.6C1387.752,605.518,1387.765,605.518,1387.778,605.518z"/>
				<path fill-rule="evenodd" clip-rule="evenodd" fill="#F7F9FA" d="M1404.072,621.29c0.188,0.026,0.479-0.052,0.6,0.04
					c-0.2,0-0.4,0-0.6,0C1404.072,621.316,1404.072,621.304,1404.072,621.29z"/>
				<path fill-rule="evenodd" clip-rule="evenodd" fill="#F7F9FA" d="M1405.553,621.29c0.2,0,0.4,0,0.601,0c0,0.014,0,0.026,0,0.04
					c-0.2,0-0.4,0-0.601,0C1405.553,621.316,1405.553,621.304,1405.553,621.29z"/>
				<path fill-rule="evenodd" clip-rule="evenodd" fill="#FFFFFF" d="M1387.778,606.117c0.062,5.055,2.171,8.392,4.964,10.77
					c2.795,2.379,6.508,4.123,11.33,4.403c0,0.014,0,0.026,0,0.04c-5.445,0-10.89,0-16.334,0c0-5.07,0-10.142,0-15.213
					C1387.752,606.117,1387.765,606.117,1387.778,606.117z"/>
				<path fill-rule="evenodd" clip-rule="evenodd" fill="#F7F9FA" d="M1459.438,574.011c0,0.24,0,0.48,0,0.721
					c-0.014,0-0.027,0-0.04,0c0-0.24,0-0.48,0-0.721C1459.41,574.011,1459.424,574.011,1459.438,574.011z"/>
				<path fill-rule="evenodd" clip-rule="evenodd" fill="#F7F9FA" d="M1402.351,589.224c0.454-0.066,1.188-0.066,1.642,0
					C1403.444,589.224,1402.897,589.224,1402.351,589.224z"/>
				<path fill-rule="evenodd" clip-rule="evenodd" fill="#F7F9FA" d="M1387.778,603.996c0,0.227,0,0.453,0,0.681
					c-0.014,0-0.026,0-0.04,0c0-0.228,0-0.454,0-0.681C1387.752,603.996,1387.765,603.996,1387.778,603.996z"/>
			</g>
		</g>
	</g>
</g>
<g id="Laptop">
	<g>
		<polygon fill="#A7A9AC" stroke="#A7A9AC" stroke-width="10" stroke-miterlimit="10" points="123.224,941.506 324.858,947.373 
			457.743,836.659 268.792,831.531 245.569,604.803 101.238,712.443 		"/>
		<polygon fill="#FFFFFF" points="116.184,719.865 135.462,916.126 255.71,824.668 235.435,630.663 		"/>
		<polygon fill="#808285" stroke="#808285" stroke-miterlimit="10" points="156.815,931.071 274.8,839.388 362.297,841.053 
			250.537,933.76 		"/>
		
			<line fill="#A7A9AC" stroke="#A7A9AC" stroke-width="10" stroke-miterlimit="10" x1="127.12" y1="941.617" x2="268.792" y2="831.531"/>
		<polygon fill="#939598" points="303.78,897.854 375.598,900.384 406.765,874.888 334.78,872.764 		"/>
	</g>
</g>
<g id="Controller">
	<g>
		<polyline fill="#444445" stroke="#14BEF0" stroke-width="3" stroke-miterlimit="10" points="1379.896,784.439 1381.552,768.798 
			1391.6,775.36 1390.307,791.236 1401.168,789.972 1403.703,770.724 1394.828,764.928 1383.738,765.449 		"/>
		<polygon fill="#3D3D3E" points="1184.627,745.208 1182.876,796.56 1515.688,1014.13 1851.046,955.442 1856.161,904.684 
			1518.077,684.884 		"/>
		<polygon fill="#282829" points="1856.161,904.684 1522.387,966.075 1518.923,1015.798 1851.046,955.442 		"/>
		<polygon fill="#282829" points="1184.627,745.208 1522.387,966.075 1518.923,1015.798 1182.876,796.56 		"/>
		<polygon fill="#808285" points="1351.233,828.658 1395.428,857.521 1401.005,857.144 1356.486,828.068 		"/>
		<path fill="#444445" stroke="#14BEF0" stroke-width="3" stroke-miterlimit="10" d="M1383.575,837.181"/>
		<polygon fill="#FFFFFF" points="1368.424,843.038 1368.997,828.171 1381.958,825.873 1390.216,831.261 1388.576,845.746 
			1375.609,847.732 		"/>
		<polygon fill="#808285" points="1427.95,852.581 1435.038,857.21 1509.327,843.899 1503.312,839.971 		"/>
		<polygon fill="#FFFFFF" points="1423.817,849.857 1441.104,861.151 1450.328,859.345 1451.182,845.72 1434.081,834.552 
			1424.696,836.198 		"/>
		<polygon fill="#808285" points="1452.565,868.658 1459.654,873.288 1533.942,859.978 1527.927,856.049 		"/>
		<polygon fill="#FFFFFF" points="1516.955,853.802 1534.243,865.093 1543.462,863.287 1544.319,849.665 1527.219,838.493 
			1517.833,840.14 		"/>
		<polygon fill="#808285" points="1390.649,828.221 1397.737,832.849 1472.025,819.539 1466.009,815.609 		"/>
		<polygon fill="#808285" points="1365.423,811.745 1372.512,816.374 1446.799,803.063 1440.784,799.136 		"/>
		<path fill="#FFFFFF" d="M1562.979,813.148l-0.63,12.813c0,0,4.902,7.839,12.119,1.303l0.255-13.783
			C1574.724,813.481,1569.069,807.108,1562.979,813.148z"/>
		<path fill="#FFFFFF" d="M1590.244,808.035l-0.627,12.812c0,0,4.9,7.842,12.119,1.304l0.253-13.782
			C1601.989,808.368,1596.335,801.995,1590.244,808.035z"/>
		<path fill="#FFFFFF" d="M1616.643,801.687l-0.627,12.812c0,0,4.901,7.839,12.119,1.304l0.256-13.783
			C1628.391,802.019,1622.734,795.645,1616.643,801.687z"/>
		<path fill="#808285" d="M1745.833,893.335c-6.048,26.291-46.842,39.344-91.11,29.162c-44.274-10.185-75.259-39.75-69.208-66.038
			c6.044-26.287,46.834-39.349,91.105-29.164C1720.896,837.48,1751.878,867.046,1745.833,893.335z"/>
		<polygon fill="#808285" points="1539.097,948.137 1544.204,951.472 1628.931,936.425 1623.633,932.964 		"/>
		<polygon fill="#14BEF0" points="1531.578,915.463 1547.931,926.143 1565.967,922.642 1549.489,912.148 		"/>
		<polygon fill="#14BEF0" points="1509.035,900.974 1525.386,911.654 1543.423,908.156 1526.945,897.661 		"/>
		<polygon fill="#14BEF0" points="1486.501,886.257 1502.853,896.937 1520.887,893.438 1504.412,882.945 		"/>
		<path fill="#14BEF0" d="M1528.858,822.057l-0.627,12.813c0,0,9.725,7.074,17.709,0.129l-0.48-12.654
			C1545.46,822.345,1537.725,815.054,1528.858,822.057z"/>
		<path fill="#FFFFFF" d="M1537.169,872.524l-0.629,12.812c0,0,9.726,7.076,17.709,0.131l-0.48-12.656
			C1553.769,872.811,1546.035,865.519,1537.169,872.524z"/>
		<path fill="#FFFFFF" d="M1568.7,893.121l-0.626,12.812c0,0,9.724,7.073,17.711,0.13l-0.482-12.657
			C1585.303,893.405,1577.567,886.114,1568.7,893.121z"/>
		<polygon fill="#808285" points="1230.218,746.019 1235.326,749.355 1320.054,734.305 1314.756,730.847 		"/>
		<polygon fill="#F1F2F2" points="1264.991,733.834 1282.278,745.125 1287.772,744.104 1290.881,731.952 1277.164,722.992 
			1270.378,723.119 		"/>
		<polygon fill="#14BEF0" points="1335.021,786.893 1351.373,797.572 1369.411,794.07 1352.934,783.578 		"/>
		<polygon fill="#14BEF0" points="1312.479,772.406 1328.83,783.086 1346.866,779.583 1330.388,769.09 		"/>
		<polygon fill="#14BEF0" points="1289.944,757.688 1306.294,768.369 1324.331,764.866 1307.855,754.372 		"/>
		<path fill="#FFFFFF" d="M1339.774,743.407l-0.628,12.812c0,0,9.724,7.073,17.711,0.13l-0.48-12.657
			C1356.377,743.692,1348.641,736.401,1339.774,743.407z"/>
		<path fill="#FFFFFF" d="M1372.146,764.547l-0.629,12.815c0,0,9.726,7.071,17.711,0.128l-0.48-12.655
			C1388.747,764.835,1381.012,757.544,1372.146,764.547z"/>
		<polygon fill="#FFFFFF" points="1570.938,936.478 1588.226,947.77 1593.717,946.747 1596.828,934.596 1583.109,925.636 
			1576.326,925.761 		"/>
		<polygon fill="#FFFFFF" points="1420.152,819.372 1437.441,830.664 1446.662,828.859 1447.517,815.234 1430.418,804.067 
			1421.031,805.711 		"/>
		<path fill="#808285" d="M1547.3,752.089c-4.018,26.399-42.83,42.386-86.685,35.713c-43.858-6.674-76.153-33.482-72.133-59.878
			c4.016-26.396,42.822-42.389,86.68-35.715C1519.023,698.884,1551.313,725.691,1547.3,752.089z"/>
		<path fill="#FFFFFF" d="M1746.264,884.407c-5.649,24.551-44.817,36.496-87.489,26.679c-42.674-9.815-72.684-37.674-67.033-62.222
			c5.644-24.552,44.811-36.498,87.484-26.683C1721.902,831.998,1751.91,859.857,1746.264,884.407z"/>
		<path fill="#FFFFFF" d="M1545.077,745.48c-3.541,23.259-40.148,36.978-81.769,30.644c-41.619-6.333-72.486-30.316-68.947-53.574
			c3.54-23.259,40.144-36.981,81.763-30.648C1517.746,698.236,1548.612,722.223,1545.077,745.48z"/>
		<polygon fill="#FFFFFF" points="1430.673,797.45 1447.962,808.741 1457.183,806.937 1458.038,793.311 1440.94,782.145 
			1431.553,783.789 		"/>
		<path fill="#FFFFFF" d="M1799.538,875.886l-0.63,12.813c0,0,4.904,7.84,12.119,1.303l0.257-13.784
			C1811.284,876.218,1805.629,869.846,1799.538,875.886z"/>
		<path fill="#FFFFFF" d="M1695.78,808.144l-0.628,12.812c0,0,4.901,7.84,12.118,1.304l0.255-13.784
			C1707.525,808.476,1701.871,802.103,1695.78,808.144z"/>
		<path fill="#FFFFFF" d="M1517.583,690.485l-0.628,12.813c0,0,4.901,7.84,12.117,1.303l0.256-13.784
			C1529.328,690.817,1523.674,684.445,1517.583,690.485z"/>
		<path fill="#FFFFFF" d="M1557.408,717.001l-0.628,12.813c0,0,4.901,7.84,12.118,1.303l0.255-13.782
			C1569.153,717.335,1563.499,710.96,1557.408,717.001z"/>
		<path fill="#14BEF0" d="M1641.503,775.667l-0.627,12.813c0,0,9.724,7.075,17.71,0.129l-0.482-12.656
			C1658.104,775.953,1650.368,768.662,1641.503,775.667z"/>
		<path fill="#FFFFFF" d="M1747.688,842.046l-0.628,12.814c0,0,4.902,7.838,12.12,1.301l0.255-13.782
			C1759.436,842.379,1753.78,836.005,1747.688,842.046z"/>
		<path fill="#FFFFFF" d="M1597.454,743.605l-0.626,12.814c0,0,4.902,7.84,12.118,1.301l0.257-13.78
			C1609.203,743.94,1603.546,737.565,1597.454,743.605z"/>
		<path fill="#FFFFFF" d="M1529.214,791.619l-0.627,12.813c0,0,4.901,7.841,12.117,1.302l0.255-13.783
			C1540.959,791.951,1535.304,785.581,1529.214,791.619z"/>
		<path fill="#FFFFFF" d="M1556.479,786.507l-0.629,12.814c0,0,4.902,7.839,12.118,1.301l0.258-13.783
			C1568.227,786.839,1562.57,780.467,1556.479,786.507z"/>
		<path fill="#FFFFFF" d="M1583.169,781.539l-0.629,12.815c0,0,4.903,7.84,12.118,1.303l0.257-13.785
			C1594.915,781.872,1589.26,775.5,1583.169,781.539z"/>
		<path fill="#14BEF0" d="M1492.514,799.017l-0.628,12.814c0,0,9.724,7.071,17.71,0.128l-0.48-12.655
			C1509.115,799.304,1501.38,792.013,1492.514,799.017z"/>
	</g>
</g>
<g id="Body">
	<g>
		<path fill="#BD8966" d="M1310.048,732.465c0,0,16.52,1.012,21.438-5.722C1331.485,726.743,1339.146,747.493,1310.048,732.465z"/>
		<g>
			<g>
				<path fill="#BD8966" d="M967.648,390.159l-3.718,40.228c0,0,82.917,25.167,94.657,70.449c0,0,52.506,12.459,61.436,16.124
					c0,0,23.575,9.53,30.004,21.256c0-0.001,14.823,20.43,10.001,64.682c-2.04,18.722,15.538,61.754,12.799,87.772l-2.384,31.722
					c0,0,52.94,0.128,113.415,7.854c38.641,4.937,43.694,1.494,71.709,6.587c0,0,69.364,55.279,6.707,57.297
					c-53.352,1.718-60.486-7.236-115.185,4.573c-18.992,4.101-43.403,3.833-77.382,7.215c0,0-91.61,18.312-94.976-69.141
					L1057.158,610.8l-181.193-16.146l13.064-183.684c0,0,75.544-115.709,77.059-57.855l5.377,10.744L967.648,390.159z"/>
				<path fill="#BD8966" d="M813.558,425.124l-2.328,44.219c0,0-65.503,25.482-93.305,40.662c0,0-54.737,6.689-63.755,9.461
					c0,0-24.785,6.87-32.422,17.593c0,0-16.973,18.313-16.344,61.694c0.266,18.351-15.476,39.386-18.127,65.148l-0.87,41.124
					c0,0-56.359,13.582-84.584,33.577c0,0-64.928,31.286-102.958,29.346c0,0-32.078,36.631-0.008,66.766
					c0,0,109.573-29.09,146.738-35.019c0,0,113.677-5.369,121.279-48.954l23.697-68.391l15.821-59.006l187.424-4.062l4.43-179.363
					c0,0-63.195-134.613-70.29-78.685l-1.501,59.352"/>
				<path fill="#BD8966" d="M1369.904,795.594c0,0,25.268,7.548,37.842,5.607c0,0,24.589,5.824,30.737,4.529
					c0,0,19-16.761-14.251-24.069l-30.764-8.901c0,0-1.001-4.74,6.723-13.422c0,0,22.313-17.818,41.375-2.776
					c0,0,5.395,4.998,3.796,30.325c0,0-1.869,13.271,7.179,14.831c0,0,13.881-4.727,12.381-32.768
					c-1.795-33.53-3.9-32.212-3.9-32.212s-24.184-51.525-80.734-43.948c0,0-14.864-3.723-61.264,47.102
					c0,0,17.248-13.247,6.732-3.394c-11.804,11.06-8.208,49.442,11.748,56.203L1369.904,795.594z"/>
				<path fill="#BD8966" d="M379.791,843.484c0,0-21.369,15.452-33.88,17.765c0,0-21.296,13.602-27.528,14.405
					c0,0-23.462-9.563,5.523-27.422l26.112-18.541c0,0-0.617-4.806-10.77-10.457c0,0-26.939-9.471-39.979,11.013
					c0,0-4.724,3.373,5.131,26.759c0,0,2.686,8.884-5.343,13.338c0,0-9.933,6.266-17.757-20.703
					c-9.355-32.249-6.933-31.698-6.933-31.698s4.865-59.449,60.754-70.931c0,0,29.143-3.625,74.352,27.114
					c0,0-20.65-6.823-7.475-0.985c14.789,6.553,24.042,43.977,7.429,56.936L379.791,843.484z"/>
				<path fill="#BD8966" d="M308.112,757.832c0,0-58.415,50.614-46.811,90.936c0,0,8.587,21.483,18.555-0.261"/>
				<path fill="#BD8966" d="M340.28,749.344c0,0-57.055,40.501-44.389,80.501c0,0,5.277,17.999,14.667-4.001"/>
				<path fill="#A97C50" d="M585.596,703.916c0,0,12.779,26.764,56.6,18.759C642.195,722.675,609.751,722.489,585.596,703.916z"/>
				<path fill="#BD8966" d="M812.738,425.124c0,0,3.987,59.367,70.987,63.458c0,0,70.259,9.852,89.463-55.176
					C973.188,433.405,854.418,471.357,812.738,425.124z"/>
				<path fill="#A97C50" d="M1132.225,748.781c0,0,23.728,4.121,39.027-28.654C1171.252,720.127,1155.877,741.521,1132.225,748.781z
					"/>
			</g>
			<path fill="#FFFFFF" d="M1442.182,782.936l15.856,8.819l-0.25,3.896l-0.246,4.803l-0.191,3.743l-13.344-6.44
				C1444.007,797.756,1438.887,786.068,1442.182,782.936z"/>
		</g>
	</g>
</g>
<g id="Shirt">
	<g>
		<path fill="#FFFFFF" d="M690.058,604.803c0,0-5.362,31.546,2.585,138.24c0,0-8.583,151.301-10.585,177.301
			c0,0,156.24,133.029,350,27.029l20.086-188.283c0,0,17.164-101.73,15.73-162.194c-0.865-36.479-174.363-78.638-174.363-78.638
			s-146.453-4.128-166.453,12.479s-21.373,72.607-21.373,72.607L690.058,604.803z"/>
		<path fill="#FFFFFF" d="M801.347,426.266c0,0,91.164,103.571,171.841,7.14c0,0,64.385,16.946,78.867,31.727
			c0,0,79.69,22.062,89.795,38.391c0,0,15.666,9.982,18.821,64.492c0,0-0.343,10.051-0.086,15.363c0,0,10.133,47.801,10.123,61.521
			c0,0-87.833-8.349-108.442,10.655l-13.368-62.194l-172.994-17.172l-2.74-72.016C873.163,504.174,832.862,482.611,801.347,426.266z
			"/>
		<path fill="#FFFFFF" d="M980.908,436.907c0,0-107.943,99.104-169.17-11.784c0,0-66.191,10.315-81.5,23.03
			c0,0-79.966,11.804-91.771,26.98c0,0-16.509,8.188-25.986,62.356c0,0-0.841,10.095-1.717,15.378c0,0-14.545,46.771-16.142,60.499
			c0,0,85.997,1.607,103.949,22.982l20.377-60.684l171.392,2.667l11.123-71.728C901.462,506.605,943.449,489.658,980.908,436.907z"
			/>
		<path fill="#D1D3D4" d="M1065.101,657.359c0,0,4.38-46.034,5.039-60.019C1070.14,597.341,1074.528,621.014,1065.101,657.359"/>
		<path fill="#D1D3D4" d="M692.319,560.107c-2.451,69.821-4.906,69.487-3.928,83.479
			C688.391,643.586,685.271,590.506,692.319,560.107z"/>
		<path fill="#E6E7E8" d="M884.898,589.304l-5.499,76.565C879.399,665.869,895.544,598.601,884.898,589.304z"/>
	</g>
</g>
<g id="Head">
	<g>
		<path fill="#A8684B" d="M853.465,327.253c0,0,42,18.174,93.576,12.396C947.041,339.649,896.465,369.691,853.465,327.253z"/>
		<path fill="#A8684B" d="M853.465,327.983c0,0,4.794,35.889,42.036,44.452c13.917,3.2,43.297-10.785,51.54-32.269
			C947.041,340.166,884.631,392.649,853.465,327.983z"/>
		<path fill="#FFFFFF" stroke="#FFFFFF" stroke-miterlimit="10" d="M899.812,363.478c0,0-35.514,0.409-45.347-34.495
			c0,0,38.663,33.86,91.576,12C946.041,340.983,933.993,367.307,899.812,363.478"/>
		<path fill="#FFFFFF" stroke="#FFFFFF" stroke-miterlimit="10" d="M840.669,240.736c0,0,29.295-19.087,41.295,6.08
			C881.965,246.816,867.169,253.736,840.669,240.736z"/>
		<ellipse fill="#3C2415" cx="863.105" cy="240.836" rx="8.64" ry="7.021"/>
		<path fill="#BD8966" d="M801.929,243.833c0,0-9.964-2.518-7.464,16.482c0,0,4.641,19.868,2.997,28.358
			c0,0-3.435,12.997,12.503,23.642c0,0,5.633,38.12,40.593,90.028c0,0,33.714,44.5,88.074,3.639c0,0,16.438-10.139,40.333-41.667
			c0,0,12.967-17.895,16.667-39c0,0,13.333-6.667,13.333-32c0,0,6.667-22,5.333-26.667l-2.666-6l-10.667-12.333c0,0,2-25-6-35
			c0,0,17-67-63-81c0,0-79-20-98,53l-8.492,15.363c0,0-10.508,11.637-7.508,24.637L801.929,243.833z"/>
		<path fill="#FFFFFF" stroke="#FFFFFF" stroke-miterlimit="10" d="M881.812,247.254c-1.702-3.414-13.46-23.441-40.928-6.229
			C840.884,241.025,850.137,250.466,881.812,247.254z"/>
		<path d="M810.298,274.649c0,0-1.514-28.71-8.369-30.816c0,0-8.631-84.518,32.702-88.518c0,0-4.666-79.784,59.667-79
			c0,0,65.334,2.667,86.667,18c0,0,29,13,39.333,53c0,0,20,64.667-20,142l0.354-48.086c0,0-0.906-19.88-5.687-27.914
			c0,0,15.883-60.262-59.999-80.506c0,0-63.22-16.494-92.461,31.163c0,0-10.874,35.343-19.541,41.343
			C812.872,263.182,812.849,263.168,810.298,274.649z"/>
		
			<ellipse transform="matrix(-0.9786 -0.206 0.206 -0.9786 1658.6106 654.8982)" fill="#3C2415" cx="863.393" cy="241.118" rx="8.212" ry="6.663"/>
		<path fill="#3C2415" d="M837.174,216.522c0,0,34.135-14.869,55.982-1.417c0,0-1.938-15.789-32.038-15.027
			C861.118,200.078,840.586,204.932,837.174,216.522z"/>
		<path fill="#3C2415" d="M931.909,220.374c0,0,32.291-7.767,50.225,20.724c0,0,6.564-11.564-15.351-25.124
			C966.783,215.973,948.515,205.918,931.909,220.374z"/>
		<path fill="none" stroke="#A97C50" stroke-miterlimit="10" d="M923.965,275.983"/>
		<path fill="#FFFFFF" d="M859.653,337.238c0,0,44.598,18.911,79.311,9.078c0,0,11.669-2.75-0.006,5.488
			c0,0-44.327,33.179-79.994-10.155C858.964,341.649,854.298,333.316,859.653,337.238z"/>
		<path fill="#8B5E3C" d="M891.298,306.316c0,0,6.955,18.667,22.085,3.667C913.384,309.982,902.382,319.316,891.298,306.316z"/>
		<path fill="#8B5E3C" d="M923.965,312.566c0,0,13.5,6.75,12.25-11.75C936.215,300.816,936.84,316.691,923.965,312.566z"/>
		<path fill="#8B5E3C" d="M873.465,290.982c0,0-8.5,15.309,6.667,16.309C880.131,307.292,867.631,306.619,873.465,290.982z"/>
		<path fill="#8B5E3C" d="M913.384,255.816c0,0,1.831,20,8.831,29.25"/>
		<path fill="#603913" d="M877.244,306.184c0,0,4.471-10.243,14.054,0.132C891.298,306.316,882.273,304.551,877.244,306.184z"/>
		<path fill="#603913" d="M913.384,309.982c0,0,10.581-9.167,12.438,2.764C925.822,312.746,923.303,308.649,913.384,309.982z"/>
		<path fill="#9D734A" d="M982.965,325.066l-9.5,20C973.465,345.066,985.465,328.566,982.965,325.066z"/>
		<path fill="#9D734A" d="M825.3,307.292c0,0,1.021,16.243,7.665,21.691C832.965,328.983,822.965,323.566,825.3,307.292z"/>
		<path fill="#B47252" d="M857.402,336.188c0,0,16.896-4.872,43.542,4.127c0,0,23.437-2.995,43.041,5.979
			C943.985,346.295,908.132,357.532,857.402,336.188z"/>
		<path fill="#B47252" d="M857.08,337.65c0,0,2.179,30.999,41.218,39.333c0,0,25.667,4.667,45.687-29.556
			C943.985,347.427,898.465,391.316,857.08,337.65z"/>
		<path fill="#9D734A" d="M877.737,253.932c0,0-22.546,8.426-36.914-7.331C840.823,246.601,856.208,258.83,877.737,253.932z"/>
		<path fill="#9D734A" d="M933.802,255.508c0,0,21.242,8.343,38.693,3.235C972.495,258.743,956.858,266.637,933.802,255.508z"/>
		<path fill="#3C2415" d="M933.674,253.56c0,0,27.798-9.087,44.791,6.08C978.465,259.639,961.632,236.908,933.674,253.56z"/>
		<path fill="#9D734A" d="M934.319,250.904c0,0,3.771-5.823,9.229-5.823C943.549,245.081,939.158,246.628,934.319,250.904z"/>
		<path fill="#9D734A" d="M978.465,256.182c0,0,6.333,0.8,8.833-3.033C987.298,253.149,985.259,258.769,978.465,256.182z"/>
		<path fill="#9D734A" d="M979.196,257.118c0,0,3.713,2.855,7.553,0.598C986.749,257.716,982.018,261.085,979.196,257.118z"/>
		<path fill="#9D734A" d="M936.403,245.192c0,0-3.428,4.982-3.252,7.38C933.151,252.572,931.561,248.882,936.403,245.192z"/>
		<path fill="#8B5E3C" d="M842.104,388.476c0,0,14.465,31.542,44.209,35.08c0,0,29.078,6.455,60.604-24.545
			c0,0-30.609,26.333-61.359,20.583C885.558,419.594,860.65,418.108,842.104,388.476z"/>
	</g>
</g>
</svg>
